<svg width="64" height="64" xmlns="http://www.w3.org/2000/svg">
  <rect width="64" height="64" fill="transparent"/>
  <!-- Sparkle effects -->
  <g opacity="0.9">
    <path d="M32,16 L34,20 L32,24 L30,20 Z" fill="#FFEB3B"/>
    <path d="M28,32 L32,30 L36,32 L32,34 Z" fill="#FFC107"/>
    <path d="M48,28 L50,32 L48,36 L46,32 Z" fill="#FFEB3B"/>
    <path d="M16,36 L18,40 L16,44 L14,40 Z" fill="#FFC107"/>
    <path d="M44,48 L46,52 L44,56 L42,52 Z" fill="#FFEB3B"/>
    <path d="M20,48 L22,52 L20,56 L18,52 Z" fill="#FFC107"/>
  </g>
  <!-- Small sparkles -->
  <circle cx="24" cy="24" r="1" fill="#FFEB3B"/>
  <circle cx="40" cy="20" r="1" fill="#FFC107"/>
  <circle cx="52" cy="44" r="1" fill="#FFEB3B"/>
  <circle cx="12" cy="28" r="1" fill="#FFC107"/>
</svg>